{
	"asset":{
		"version":"2.0",
		"generator":"Created using the official Cinema 4D glTF Exporter 1.000x284978"
	},
	"scenes":[{
		"nodes":[0]
	}],
	"nodes":[{
		"name":"Default",
		"mesh":0
	}],
	"meshes":[{
		"name":"Default",
		"primitives":[{
			"attributes":{
				"POSITION":1
			},
			"indices":0
		}]
	}],
	"accessors":[{
		"bufferView":0,
		"type":"SCALAR",
		"componentType":5123,
		"count":60717,
		"byteOffset":0,
		"min":[0],
		"max":[10266]
	},
	{
		"bufferView":1,
		"type":"VEC3",
		"componentType":5126,
		"count":10267,
		"byteOffset":0,
		"min":[-4.498186111450195,
		6.38235330581665,
		-4.10142707824707],
		"max":[5.257664680480957,
		18.7592716217041,
		4.071331977844238]
	}],
	"bufferViews":[{
		"buffer":0,
		"byteOffset":0,
		"byteLength":121434,
		"target":34963
	},
	{
		"buffer":0,
		"byteOffset":121436,
		"byteLength":123204,
		"target":34962
	}],
	"buffers":[{
		"uri":"data:application/octet-stream;base64,",
		"byteLength":244640
	}]
}